<svg xmlns="http://www.w3.org/2000/svg" viewBox="0 0 3024.32 1200"><defs><style>.cls-1{fill:#fff;}.cls-2{fill:#1c63c9;}.cls-3{fill:#e4f0f4;}.cls-4{fill:#c92834;}</style></defs><g id="Слой_2" data-name="Слой 2"><g id="Слой_1-2" data-name="Слой 1"><g id="On_dark" data-name="On dark"><path class="cls-1" d="M893.38,1097.09a524.27,524.27,0,0,1-173.13,29.28c-254.54,0-467.44-181.61-516-422.06l-77.89-18.43C168.06,976.56,418,1200,720.25,1200a597.14,597.14,0,0,0,331.08-99.58Z"/><path class="cls-1" d="M219,439.45c68-212,267-365.82,501.3-365.82a523.43,523.43,0,0,1,298,92.72l83.34-29.6A597.58,597.58,0,0,0,720.25,0c-278.16,0-512.07,189.29-580,446.08Z"/><path class="cls-1" d="M1233,480.93A526.28,526.28,0,0,1,1246.62,600c0,133.51-50,255.54-132.2,348.43L1181.27,984a600.77,600.77,0,0,0,117.66-542.91Z"/><path class="cls-2" d="M424,450,260.38,659l51.47,44.23,296.6-318.78ZM1610.11,0l-50.44,203.5L572.61,800.36,347.16,733.6,773.37,325.87h0l341.52-121.3L569.68,642.85l24.53,29.85,742.44-546.89Zm-481,1033.64-338.82-7.14L624.43,824.64l55.7-29.75ZM295.44,501.61,0,526.5l46.73,108L55,598.72l162.21,38.39ZM114.55,540.54l-53,24.68,4.07-19.49Z"/><path class="cls-1" d="M1763.92,622q-47.36,0-61.38-32.88t-3.07-81.73q20.52-91.52,82.63-120.84l299.68-138.6q35.46-16,43.82-53.31,5.58-24.87-5.93-32.43t-41.55-7.55H1782.48L1817.14,0h403.08q84.68,0,110.27,42.2t6.67,126.6Q2317.84,255,2285.65,295T2198,359l-213.94,93.29q-10.11,4.46-11.1,8.88c-.54,2.38,1.32,3.56,5.58,3.56H2259L2223.73,622Z"/><path class="cls-1" d="M3007.23,15.11Q2990.6,0,2955.11,0H2371a128.75,128.75,0,0,1,8.57,12.41c22,36.45,28.23,83.14,18.77,142.2H2753.8c15.15,0,22.27,2.39,21.21,7.11-1,4.16-5.39,10.38-13.3,18.64L2366.75,622h227.67l378-443.34q35.77-41.8,47.13-92.41c3.45-15.42,5.08-28.58,4.77-39.58S3018.32,25.22,3007.23,15.11Z"/><polygon class="cls-3" points="1981.88 972.11 1599.32 972.11 1613.13 909.59 1995.69 909.59 1981.88 972.11"/><polygon class="cls-2" points="2403.87 972.11 2021.31 972.11 2035.12 909.59 2417.68 909.59 2403.87 972.11"/><polygon class="cls-4" points="2825.86 972.11 2443.3 972.11 2457.1 909.59 2839.66 909.59 2825.86 972.11"/><path class="cls-1" d="M1663.24,1088.77c-1.08-.54-12.63-6.45-31.44-6.45-7,0-12.09.54-17.19,2.69-3,1.07-7.79,4-7.79,10.74,0,3.5,1.34,5.65,4,7.8,3.49,3,7.79,4.56,13.16,7l9.67,4.3c8.06,3.49,16.66,8.06,21.77,16.93,3.22,5.1,4.83,11.82,4.83,19.34,0,9.94-2.42,26.87-19.07,37.62-12.36,8.06-31.71,11.28-47.56,11.28a129.37,129.37,0,0,1-42.45-7.25l8.6-28.48c11.28,5.37,22,8.06,33.85,8.06,9.67,0,18-1.88,22.3-4.3,5.38-3,7-8.06,7-12.36a14.91,14.91,0,0,0-3.5-9.14c-1.88-2.15-5.91-4.56-15.85-8.59l-7-2.69c-6.45-2.69-15.85-8.6-19.88-13.17-5.65-6.71-7-14.77-7-20.95,0-14.24,5.37-28.48,21.22-37.62,10.21-5.91,23.92-9.13,41.11-9.13,22.84,0,35.2,4,40.84,6.18Z"/><polygon class="cls-1" points="1765.07 1057.07 1767.48 1151.37 1767.75 1151.37 1813.96 1057.07 1876.57 1057.07 1845.4 1197.58 1807.25 1197.58 1833.85 1082.32 1833.58 1082.32 1775.81 1197.58 1739 1197.58 1733.36 1082.32 1732.83 1082.32 1707.57 1197.58 1671.84 1197.58 1703.81 1057.07 1765.07 1057.07"/><path class="cls-1" d="M1898.33,1057.07h41.11c15.31,0,37.88.8,50,12.62,7.25,7,9.13,15.85,9.13,25.8,0,22.83-11.28,34.12-18.54,39.49-9.67,7.52-24.44,13.17-44.59,13.17h-19.35l-10.48,49.16H1867.7Zm23.37,64.75h10.21c3.76,0,13.17,0,20.42-4.84,3-1.88,8.33-7,8.33-16.93,0-4.83-1.07-8.59-3-11-4.57-5.38-13.44-5.64-16.39-5.64H1930Z"/><path class="cls-1" d="M2065.71,1057.07h51.59c25.52,0,36.27,5.1,40.84,8.59,10.74,7.79,12.09,19.08,12.09,27.41,0,10.74-3,19.07-12.36,26.06-10.21,7.52-23.65,9.4-29,9.94v.27a16.91,16.91,0,0,1,12.09,9.13c.81,1.88,2.69,5.91,4.84,15.59l10.21,43.25H2118.1l-7.25-35.73c-1.34-6.72-2.15-13.43-5.91-16.66-3.49-3-9.41-3-16.12-3h-3.76L2073,1197.31h-37.89Zm25.26,58.57h12.09c12.89,0,18.8-2.42,21.49-3.77,7-3.76,7.79-10.2,7.79-14,0-6.18-3.22-9.4-4.3-10.21-4.29-3.49-11.55-3.76-13.16-3.76h-17.2Z"/><path class="cls-1" d="M2238.2,1057.07h45.94l24.18,140.51h-41.1l-4-29.82h-52.93l-17.47,29.82h-38.15l4.3-7.52Zm16.66,28.74h-.27l-29.82,55.08h35.46Z"/><path class="cls-1" d="M2440.78,1090.92c-3.76-2.42-9.4-5.11-18-7a83.76,83.76,0,0,0-17.2-1.61c-15.31,0-29.55,3.76-40.3,16.66-5.37,6.45-12.62,18.54-12.62,36.54,0,7,1.34,19.07,11,27.67,9.41,8.33,22.57,9.14,29.29,9.14a78.75,78.75,0,0,0,34.12-7.79l-4,30.09a122.82,122.82,0,0,1-35.2,5.37c-18,0-40.57-4.3-55.08-17.73-8.32-7.53-19.07-21.77-19.07-45.68,0-28.48,12.63-48.63,23.1-59.11,19.62-19.61,46.22-22.83,66.64-22.83,18,0,32.5,2.42,45.94,7.52Z"/><polygon class="cls-1" points="2506.34 1057.07 2477.05 1197.58 2440.51 1197.58 2469.8 1057.07 2506.34 1057.07"/><polygon class="cls-1" points="2527.03 1057.07 2572.7 1057.07 2600.64 1154.59 2601.18 1154.59 2620.26 1057.07 2654.91 1057.07 2625.9 1197.58 2580.49 1197.58 2551.74 1100.59 2551.47 1100.59 2532.4 1197.58 2497.74 1197.58 2527.03 1057.07"/><path class="cls-1" d="M2793.28,1090.38c-5.91-2.69-19.34-8.06-40.3-8.06-9.4,0-29,1.34-42.72,16.66-7.52,8.6-12.9,23.1-12.9,36.81,0,10.74,3,18.8,7.53,24.18,4.83,5.91,13.7,12.36,28.21,12.36,8.06,0,12.36-1.35,15.31-2.42l6.45-27.67H2732l5.65-26.6h60.45l-17.2,78.18a202.08,202.08,0,0,1-50,6.18c-26.87,0-43.79-9.13-53.74-18.27-16.38-15-19.34-32.78-19.34-46.48,0-33.85,15.58-54.27,29.55-64.48,20.42-14.78,47.29-16.12,63.68-16.12,21.76,0,36.81,2.68,50.24,7.25Z"/><path class="cls-1" d="M1631,824.61l6.22-27.76h63.45q6.38,0,7.17-3.51a3,3,0,0,0-1-3.35,18.85,18.85,0,0,0-5.06-2.24l-41.6-12.12q-18.15-5.11-11.82-33.36,6.59-29.37,33.4-29.36h75.56L1751,740.67h-58.22q-7.86,0-8.64,3.52a3.22,3.22,0,0,0,1.59,3.82,26.08,26.08,0,0,0,6.66,2.4l36.34,10.05q12.18,3.36,15.83,11.09t.41,22.26q-3.43,15.33-11.47,23.06t-23.24,7.74Z"/><path class="cls-1" d="M1946.1,824.61h-50q-27.64,0-35.89-13.17t-1.63-42.68q6.62-29.52,20.77-42.68t41.79-13.17h48.41l-6.22,27.76h-29.44q-18.81,0-26.12,5.27t-11.25,22.82q-3.95,17.57,1,22.82t23.76,5.27h31.08Z"/><path class="cls-1" d="M2197.79,712.91l-25,111.7h-37l9.94-44.36H2104.2l-9.95,44.36h-37l25-111.7h37l-8.87,39.58H2152l8.87-39.58Z"/><path class="cls-1" d="M2343.16,713.78q11.68-2.14,30.49-2.15t29.53,2.15q10.72,2.16,17.16,8.47t7,17.31q.55,11-3.52,29.2t-9.58,29.2a44.35,44.35,0,0,1-14.75,17.32,54.22,54.22,0,0,1-20.95,8.45q-11.69,2.16-30.49,2.16t-29.53-2.16q-10.71-2.15-17.15-8.45t-7-17.32q-.56-11,3.52-29.2t9.58-29.2a44.26,44.26,0,0,1,14.76-17.31A54.14,54.14,0,0,1,2343.16,713.78Zm3.06,32.32q-6.82,6.71-10.39,22.66t.23,22.66q3.81,6.71,18.2,6.7t21.21-6.7q6.83-6.7,10.4-22.66t-.23-22.66q-3.82-6.71-18.21-6.7T2346.22,746.1Z"/><path class="cls-1" d="M2578.31,713.78q11.68-2.14,30.49-2.15t29.53,2.15q10.71,2.16,17.15,8.47t7,17.31q.55,11-3.52,29.2t-9.58,29.2a44.35,44.35,0,0,1-14.75,17.32,54.22,54.22,0,0,1-21,8.45q-11.68,2.16-30.5,2.16t-29.52-2.16q-10.72-2.15-17.15-8.45t-7-17.32q-.56-11,3.52-29.2t9.58-29.2a44.24,44.24,0,0,1,14.75-17.31A54.25,54.25,0,0,1,2578.31,713.78Zm3.06,32.32q-6.82,6.71-10.4,22.66t.24,22.66q3.81,6.71,18.2,6.7t21.21-6.7q6.83-6.7,10.4-22.66t-.24-22.66q-3.81-6.71-18.21-6.7T2581.37,746.1Z"/><path class="cls-1" d="M2859.71,824.61H2777q-8.51,0-12.21-4.62t-1.85-12.93L2784,712.91h37l-17.24,76.92q-1.58,7,5.62,7h56.58Z"/></g></g></g></svg>